<svg width="200" height="40" viewBox="0 0 200 40" fill="none" xmlns="http://www.w3.org/2000/svg">
<rect x="57" y="3" width="5" height="13" fill="black"/>
<rect x="57" y="23" width="5" height="11" fill="black"/>
<rect x="92" y="22" width="5" height="11" fill="black"/>
<rect x="64" y="18" width="4.5" height="9" fill="black"/>
<rect x="108" y="14" width="4.5" height="8" fill="black"/>
<rect x="80" y="3" width="5" height="4" fill="black"/>
<rect x="102" y="3" width="5" height="11" fill="black"/>
<rect x="67" y="3" width="5" height="13" fill="black"/>
<rect x="92" y="3" width="5" height="16" fill="black"/>
<rect x="121" y="3" width="5" height="15" fill="black"/>
<rect x="135" y="3" width="4.5" height="21" fill="black"/>
<rect x="141" y="3" width="4.5" height="21" fill="black"/>
<rect x="57" y="3" width="15" height="4" fill="black"/>
<rect x="57" y="12" width="15" height="4" fill="black"/>
<rect x="57" y="30" width="15" height="4.5" fill="black"/>
<rect x="81" y="20" width="16" height="4.5" fill="black"/>
<rect x="74" y="5" width="16" height="4" fill="black"/>
<rect x="102" y="3" width="16" height="4" fill="black"/>
<rect x="102" y="12" width="16" height="4" fill="black"/>
<rect x="121" y="14" width="12.5" height="4" fill="black"/>
<rect x="131" y="8" width="7" height="4" fill="black"/>
<rect x="94" y="8" width="7" height="4" fill="black"/>
<rect x="101" y="18" width="18" height="4" fill="black"/>
<rect x="55" y="18" width="19" height="4" fill="black"/>
<path d="M118 28.75C118 33.0302 114.53 36.5 110.25 36.5C105.97 36.5 102.5 33.0302 102.5 28.75C102.5 24.4698 105.97 21 110.25 21C114.53 21 118 24.4698 118 28.75ZM107.075 28.75C107.075 30.5037 108.496 31.9253 110.25 31.9253C112.004 31.9253 113.425 30.5037 113.425 28.75C113.425 26.9963 112.004 25.5747 110.25 25.5747C108.496 25.5747 107.075 26.9963 107.075 28.75Z" fill="black"/>
<path d="M88 13C88 16.3137 85.3137 19 82 19C78.6863 19 76 16.3137 76 13C76 9.68629 78.6863 7 82 7C85.3137 7 88 9.68629 88 13ZM79.9012 13C79.9012 14.1591 80.8409 15.0988 82 15.0988C83.1591 15.0988 84.0988 14.1591 84.0988 13C84.0988 11.8409 83.1591 10.9012 82 10.9012C80.8409 10.9012 79.9012 11.8409 79.9012 13Z" fill="black"/>
</svg>
