<svg width="200" height="40" viewBox="0 0 200 40" fill="none" xmlns="http://www.w3.org/2000/svg">
<rect x="57" y="5" width="5" height="13" fill="#090909"/>
<rect x="57" y="25" width="5" height="11" fill="#090909"/>
<rect x="92" y="24" width="5" height="11" fill="#090909"/>
<rect x="64" y="20" width="4.5" height="9" fill="#090909"/>
<rect x="108" y="16" width="4.5" height="8" fill="#090909"/>
<rect x="80" y="5" width="5" height="4" fill="#090909"/>
<rect x="102" y="5" width="5" height="11" fill="#090909"/>
<rect x="67" y="5" width="5" height="13" fill="#090909"/>
<rect x="92" y="5" width="5" height="16" fill="#090909"/>
<rect x="121" y="5" width="5" height="15" fill="#090909"/>
<rect x="135" y="5" width="4.5" height="21" fill="#090909"/>
<rect x="141" y="5" width="4.5" height="21" fill="#090909"/>
<rect x="57" y="5" width="15" height="4" fill="#090909"/>
<rect x="57" y="14" width="15" height="4" fill="#090909"/>
<rect x="57" y="32" width="15" height="4.5" fill="#090909"/>
<rect x="81" y="22" width="16" height="4.5" fill="#090909"/>
<rect x="74" y="7" width="16" height="4" fill="#090909"/>
<rect x="102" y="5" width="16" height="4" fill="#090909"/>
<rect x="102" y="14" width="16" height="4" fill="#090909"/>
<rect x="121" y="16" width="12.5" height="4" fill="#090909"/>
<rect x="131" y="10" width="7" height="4" fill="#090909"/>
<rect x="94" y="10" width="7" height="4" fill="#090909"/>
<rect x="101" y="20" width="18" height="4" fill="#090909"/>
<rect x="55" y="20" width="19" height="4" fill="#090909"/>
<circle cx="109.75" cy="30.75" r="7.75" fill="#090909"/>
<circle cx="82.25" cy="14.25" r="6.25" fill="#090909"/>
<circle cx="82.5" cy="14.5" r="2.5" fill="white"/>
<circle cx="110" cy="31" r="3" fill="white"/>
</svg>
