<svg width="200" height="40" viewBox="0 0 200 40" fill="none" xmlns="http://www.w3.org/2000/svg">
<rect x="5" y="5" width="5" height="13" fill="#0A18A2"/>
<rect x="5" y="25" width="5" height="11" fill="#0A18A2"/>
<rect x="40" y="24" width="5" height="11" fill="#0A18A2"/>
<rect x="12" y="20" width="4.5" height="9" fill="#0A18A2"/>
<rect x="56" y="16" width="4.5" height="8" fill="#0A18A2"/>
<rect x="112" y="17" width="5" height="8" fill="#0A18A2"/>
<rect x="183" y="21" width="5" height="4" fill="#0A18A2"/>
<rect x="28" y="5" width="5" height="4" fill="#0A18A2"/>
<rect x="111" y="2" width="5" height="4" fill="#0A18A2"/>
<rect x="50" y="5" width="5" height="11" fill="#0A18A2"/>
<rect x="134" y="25" width="4.5" height="11" fill="#0A18A2"/>
<rect x="177" y="25" width="4" height="12" fill="#0A18A2"/>
<rect x="189" y="25" width="4" height="12" fill="#0A18A2"/>
<rect x="121" y="22" width="4.5" height="10" fill="#0A18A2"/>
<rect x="190" y="5" width="4" height="8" fill="#0A18A2"/>
<rect x="108" y="28" width="4.5" height="9" fill="#0A18A2"/>
<rect x="178" y="10" width="4" height="7" fill="#0A18A2"/>
<rect x="165" y="5" width="5" height="11" fill="#0A18A2"/>
<rect x="15" y="5" width="5" height="13" fill="#0A18A2"/>
<rect x="40" y="5" width="5" height="16" fill="#0A18A2"/>
<rect x="69" y="5" width="5" height="15" fill="#0A18A2"/>
<rect x="83" y="5" width="4.5" height="21" fill="#0A18A2"/>
<rect x="89" y="5" width="4.5" height="21" fill="#0A18A2"/>
<rect x="143" y="5" width="4.5" height="21" fill="#0A18A2"/>
<rect x="129" y="5" width="4" height="15" fill="#0A18A2"/>
<rect x="135" y="5" width="4" height="15" fill="#0A18A2"/>
<rect x="5" y="5" width="15" height="4" fill="#0A18A2"/>
<rect x="5" y="14" width="15" height="4" fill="#0A18A2"/>
<rect x="5" y="32" width="15" height="4.5" fill="#0A18A2"/>
<rect x="29" y="22" width="16" height="4.5" fill="#0A18A2"/>
<rect x="22" y="7" width="16" height="4" fill="#0A18A2"/>
<rect x="127" y="5" width="15" height="4" fill="#0A18A2"/>
<rect x="154" y="5" width="15.5" height="4" fill="#0A18A2"/>
<rect x="134" y="32" width="14" height="4" fill="#0A18A2"/>
<rect x="152" y="21" width="19.5" height="4.5" fill="#0A18A2"/>
<rect x="104" y="16" width="21" height="4" fill="#0A18A2"/>
<rect x="174" y="19" width="23" height="3.7" fill="#0A18A2"/>
<rect x="127" y="18" width="18" height="4" fill="#0A18A2"/>
<rect x="105" y="5" width="18.5" height="4" fill="#0A18A2"/>
<rect x="50" y="5" width="16" height="4" fill="#0A18A2"/>
<rect x="50" y="14" width="16" height="4" fill="#0A18A2"/>
<rect x="69" y="16" width="12.5" height="4" fill="#0A18A2"/>
<rect x="108" y="22" width="17" height="4" fill="#0A18A2"/>
<rect x="178" y="5" width="16" height="3" fill="#0A18A2"/>
<path d="M104.13 13.0676L108.614 8.58305L113.099 4.09854L115.927 6.92697L106.958 15.896L104.13 13.0676Z" fill="#0A18A2"/>
<path d="M120.849 16.1785L117.035 12.3647L113.221 8.55092L116.049 5.7225L123.677 13.35L120.849 16.1785Z" fill="#0A18A2"/>
<rect x="178" y="10" width="16" height="3" fill="#0A18A2"/>
<rect x="178" y="15" width="16" height="3" fill="#0A18A2"/>
<rect x="108" y="34" width="17" height="4" fill="#0A18A2"/>
<rect x="177" y="27" width="16" height="4" fill="#0A18A2"/>
<rect x="177" y="33" width="16" height="4" fill="#0A18A2"/>
<rect x="108" y="28" width="17" height="4" fill="#0A18A2"/>
<rect x="79" y="10" width="7" height="4" fill="#0A18A2"/>
<rect x="42" y="10" width="7" height="4" fill="#0A18A2"/>
<rect x="144" y="10" width="7" height="4" fill="#0A18A2"/>
<rect x="49" y="20" width="18" height="4" fill="#0A18A2"/>
<rect x="3" y="20" width="19" height="4" fill="#0A18A2"/>
<circle cx="57.75" cy="30.75" r="7.75" fill="#0A18A2"/>
<circle cx="30.25" cy="14.25" r="6.25" fill="#0A18A2"/>
<circle cx="30.5" cy="14.5" r="2.5" fill="white"/>
<circle cx="58" cy="31" r="3" fill="white"/>
</svg>
