<svg width="200" height="40" viewBox="0 0 200 40" fill="none" xmlns="http://www.w3.org/2000/svg">
<rect x="5" y="5" width="5" height="13" fill="#0A18A2"/>
<rect x="5" y="25" width="5" height="11" fill="#0A18A2"/>
<rect x="40" y="24" width="5" height="11" fill="#0A18A2"/>
<rect x="12" y="20" width="4.5" height="9" fill="#0A18A2"/>
<rect x="56" y="16" width="4.5" height="8" fill="#0A18A2"/>
<rect x="112" y="17" width="5" height="8" fill="#0A18A2"/>
<rect x="183" y="21" width="5" height="4" fill="#0A18A2"/>
<rect x="28" y="5" width="5" height="4" fill="#0A18A2"/>
<rect x="111" y="2" width="5" height="4" fill="#0A18A2"/>
<rect x="50" y="5" width="5" height="11" fill="#0A18A2"/>
<rect x="134" y="25" width="4.5" height="11" fill="#0A18A2"/>
<rect x="178" y="25" width="4" height="12" fill="#0A18A2"/>
<rect x="190" y="25" width="4" height="12" fill="#0A18A2"/>
<rect x="121" y="22" width="4.5" height="10" fill="#0A18A2"/>
<rect x="190" y="5" width="4" height="8" fill="#0A18A2"/>
<rect x="108" y="28" width="4.5" height="9" fill="#0A18A2"/>
<rect x="178" y="10" width="4" height="7" fill="#0A18A2"/>
<rect x="165" y="5" width="5" height="11" fill="#0A18A2"/>
<rect x="15" y="5" width="5" height="13" fill="#0A18A2"/>
<rect x="40" y="5" width="5" height="16" fill="#0A18A2"/>
<rect x="69" y="5" width="5" height="15" fill="#0A18A2"/>
<rect x="83" y="5" width="4.5" height="21" fill="#0A18A2"/>
<rect x="89" y="5" width="4.5" height="21" fill="#0A18A2"/>
<rect x="143" y="5" width="4.5" height="21" fill="#0A18A2"/>
<rect x="129" y="5" width="4" height="15" fill="#0A18A2"/>
<rect x="135" y="5" width="4" height="15" fill="#0A18A2"/>
<rect x="5" y="5" width="15" height="4" fill="#0A18A2"/>
<rect x="5" y="14" width="15" height="4" fill="#0A18A2"/>
<rect x="5" y="32" width="15" height="4.5" fill="#0A18A2"/>
<rect x="29" y="22" width="16" height="4.5" fill="#0A18A2"/>
<rect x="22" y="7" width="16" height="4" fill="#0A18A2"/>
<rect x="127" y="5" width="15" height="4" fill="#0A18A2"/>
<rect x="154" y="5" width="15.5" height="4" fill="#0A18A2"/>
<rect x="134" y="32" width="14" height="4" fill="#0A18A2"/>
<rect x="152" y="21" width="19.5" height="4.5" fill="#0A18A2"/>
<rect x="104" y="16" width="21" height="4" fill="#0A18A2"/>
<rect x="174" y="19" width="23" height="3.7" fill="#0A18A2"/>
<rect x="127" y="18" width="18" height="4" fill="#0A18A2"/>
<rect x="105" y="5" width="18.5" height="4" fill="#0A18A2"/>
<rect x="50" y="5" width="16" height="4" fill="#0A18A2"/>
<rect x="50" y="14" width="16" height="4" fill="#0A18A2"/>
<rect x="69" y="16" width="12.5" height="4" fill="#0A18A2"/>
<rect x="108" y="22" width="17" height="4" fill="#0A18A2"/>
<rect x="178" y="5" width="16" height="3" fill="#0A18A2"/>
<path d="M104.13 13.0676L108.614 8.58305L113.099 4.09854L115.927 6.92697L106.958 15.896L104.13 13.0676Z" fill="#0A18A2"/>
<path d="M120.849 16.1785L117.035 12.3647L113.221 8.55092L116.049 5.7225L123.677 13.35L120.849 16.1785Z" fill="#0A18A2"/>
<rect x="178" y="10" width="16" height="3" fill="#0A18A2"/>
<rect x="178" y="15" width="16" height="3" fill="#0A18A2"/>
<rect x="108" y="34" width="17" height="4" fill="#0A18A2"/>
<rect x="178" y="27" width="16" height="4" fill="#0A18A2"/>
<rect x="178" y="33" width="16" height="4" fill="#0A18A2"/>
<rect x="108" y="28" width="17" height="4" fill="#0A18A2"/>
<rect x="79" y="10" width="7" height="4" fill="#0A18A2"/>
<rect x="42" y="10" width="7" height="4" fill="#0A18A2"/>
<rect x="144" y="10" width="7" height="4" fill="#0A18A2"/>
<rect x="49" y="20" width="18" height="4" fill="#0A18A2"/>
<rect x="3" y="20" width="19" height="4" fill="#0A18A2"/>
<path d="M65.5 30.75C65.5 35.0302 62.0302 38.5 57.75 38.5C53.4698 38.5 50 35.0302 50 30.75C50 26.4698 53.4698 23 57.75 23C62.0302 23 65.5 26.4698 65.5 30.75ZM54.5747 30.75C54.5747 32.5037 55.9963 33.9253 57.75 33.9253C59.5037 33.9253 60.9253 32.5037 60.9253 30.75C60.9253 28.9963 59.5037 27.5747 57.75 27.5747C55.9963 27.5747 54.5747 28.9963 54.5747 30.75Z" fill="#0A18A2"/>
<path d="M36 15C36 18.3137 33.3137 21 30 21C26.6863 21 24 18.3137 24 15C24 11.6863 26.6863 9 30 9C33.3137 9 36 11.6863 36 15ZM27.9012 15C27.9012 16.1591 28.8409 17.0988 30 17.0988C31.1591 17.0988 32.0988 16.1591 32.0988 15C32.0988 13.8409 31.1591 12.9012 30 12.9012C28.8409 12.9012 27.9012 13.8409 27.9012 15Z" fill="#0A18A2"/>
</svg>
